<svg width="24" height="24" viewBox="0 0 24 24" fill="none" xmlns="http://www.w3.org/2000/svg">
<g id="documents-record-document-report-svgrepo-com 1">
<path id="Vector" d="M4.80001 5.75624H10.1438V12.15H4.80001V5.75624ZM12.2625 5.75624H16.5375V6.82499H12.2625V5.75624ZM12.2625 11.1H16.5375V12.1687H12.2625V11.1ZM12.2625 8.41874H16.5375V9.48749H12.2625V8.41874ZM4.80001 13.8H16.5188V14.8687H4.80001V13.8ZM4.80001 19.0125H16.5188V20.0812H4.80001V19.0125ZM4.80001 16.3312H16.5188V17.4H4.80001V16.3312ZM4.50001 0.299988V2.34374H2.13751V23.7562H19.5V21.7125H21.8625V0.299988H4.50001ZM18.4313 22.7062H3.18751V3.39374H4.50001H5.56876H18.4313V20.625V21.6937V22.7062ZM20.8125 20.6437H19.5V2.32499H5.56876V1.36874H20.8125V20.6437Z" fill="#A0A0A0"/>
</g>
</svg>
