<svg width="24" height="24" viewBox="0 0 24 24" fill="none" xmlns="http://www.w3.org/2000/svg">
<g id="house-fill-svgrepo-com 1">
<path id="Vector" d="M0.267822 11.9246C0.267822 12.4068 0.649508 12.6981 1.12162 12.6981C1.41292 12.6981 1.64392 12.5575 1.84484 12.3566L11.6484 3.42688C11.7589 3.31639 11.8795 3.27619 12.01 3.27619C12.1306 3.27619 12.241 3.31639 12.3616 3.42688L22.1552 12.3566C22.366 12.5575 22.597 12.6981 22.8783 12.6981C23.3504 12.6981 23.7322 12.4068 23.7322 11.9246C23.7322 11.6233 23.6217 11.4325 23.4308 11.2617L19.9553 8.09762V2.16126C19.9553 1.71928 19.6741 1.43805 19.2322 1.43805H17.9163C17.4844 1.43805 17.183 1.71928 17.183 2.16126V5.57642L13.2053 1.94029C12.8538 1.60879 12.4219 1.44808 12 1.44808C11.5781 1.44808 11.1562 1.60879 10.7946 1.94029L0.569151 11.2617C0.388379 11.4325 0.267822 11.6233 0.267822 11.9246ZM3.14058 20.3521C3.14058 21.7483 3.98435 22.5619 5.40065 22.5619H9.46869V15.4202C9.46869 14.9581 9.78009 14.6568 10.2422 14.6568H13.7879C14.25 14.6568 14.5513 14.9581 14.5513 15.4202V22.5619H18.6093C20.0256 22.5619 20.8594 21.7483 20.8594 20.3521V12.9994L12.3315 5.31525C12.2209 5.21479 12.1004 5.16461 11.9799 5.16461C11.8694 5.16461 11.7589 5.21479 11.6384 5.32532L3.14058 13.0496V20.3521Z" fill="#A0A0A0"/>
</g>
</svg>
