<svg width="24" height="24" viewBox="0 0 24 24" fill="none" xmlns="http://www.w3.org/2000/svg">
<g id="government-building-building-museum-power-svgrepo-com 1" clip-path="url(#clip0_0_200)">
<path id="Vector" d="M23.1563 22.6125V13.65H15.75V12.1875H15.225V10.8187H14.7938V8.79373H15.2813V7.81873H14.7938V7.38748C14.7938 5.83123 13.7438 4.51873 12.375 4.27498V2.71873H12.1313V0.787476H11.625V2.73748H11.3813V4.29373C9.99376 4.53748 8.96251 5.84998 8.96251 7.40623V7.83748H8.47501V8.81248H8.96251V10.8375H8.53126V12.1875H8.00626V13.65H0.825012V22.6312H-0.0187378V24.0937H24V22.6312L23.1563 22.6125ZM14.0438 8.79373V10.8187H13.5563V8.79373H14.0438ZM13.0875 8.79373V10.8187H12.6V8.79373H13.0875ZM12.1125 8.79373V10.8187H11.625V8.79373H12.1125ZM11.1375 8.79373V10.8187H10.65V8.79373H11.1375ZM9.67501 8.79373H10.1625V10.8187H9.67501V8.79373ZM3.97501 22.6125H2.75626V18.0187H3.97501V22.6125ZM3.97501 17.0437H2.75626V15.0937H3.97501V17.0437ZM6.16876 22.6125H4.95001V18.0187H6.16876V22.6125ZM6.16876 17.0437H4.95001V15.0937H6.16876V17.0437ZM8.10001 22.6125H6.88126V18.0187H8.10001V22.6125ZM8.10001 17.0437H6.88126V15.0937H8.10001V17.0437ZM10.2938 22.6125H9.07501V18.0187H10.2938V22.6125ZM10.2938 17.0437H9.07501V15.0937H10.2938V17.0437ZM12.4688 22.6125H11.25V18.0187H12.4688V22.6125ZM12.4688 17.0437H11.25V15.0937H12.4688V17.0437ZM14.6625 22.6125H13.4438V18.0187H14.6625V22.6125ZM14.6625 17.0437H13.4438V15.0937H14.6625V17.0437ZM16.8375 22.6125H15.6188V18.0187H16.8375V22.6125ZM16.8375 17.0437H15.6188V15.0937H16.8375V17.0437ZM19.0313 22.6125H17.8125V18.0187H19.0313V22.6125ZM19.0313 17.0437H17.8125V15.0937H19.0313V17.0437ZM21.2063 22.6125H19.9875V18.0187H21.2063V22.6125ZM21.2063 17.0437H19.9875V15.0937H21.2063V17.0437Z" fill="#A0A0A0"/>
</g>
<defs>
<clipPath id="clip0_0_200">
<rect width="24" height="24" fill="white"/>
</clipPath>
</defs>
</svg>
