<svg width="24" height="24" viewBox="0 0 24 24" fill="none" xmlns="http://www.w3.org/2000/svg">
<g id="warranty-term-svgrepo-com 1" clip-path="url(#clip0_0_207)">
<path id="Vector" d="M12 0.923096C13.3846 0.923096 14.5062 2.44156 15.7339 2.9631C16.9616 3.48463 18.8816 3.19848 19.8139 4.18617C20.7462 5.17386 20.5108 6.98771 21.0369 8.26617C21.5631 9.54463 23.0769 10.6154 23.0769 12C23.0769 13.3846 21.5585 14.5062 21.0369 15.7339C20.5154 16.9616 20.8016 18.8816 19.8139 19.8139C18.8262 20.7462 17.0123 20.52 15.7339 21.0369C14.4554 21.5539 13.3846 23.0769 12 23.0769C10.6154 23.0769 9.49387 21.5585 8.26617 21.0369C7.03848 20.5154 5.11848 20.8016 4.18617 19.8139C3.25386 18.8262 3.48002 17.0123 2.9631 15.7339C2.44617 14.4554 0.923096 13.3846 0.923096 12C0.923096 10.6154 2.44156 9.49387 2.9631 8.26617C3.48463 7.03848 3.19848 5.11848 4.18617 4.18617C5.17386 3.25386 6.98771 3.48002 8.26617 2.9631C9.54463 2.44617 10.6154 0.923096 12 0.923096ZM12 4.42156C10.5011 4.42156 9.03592 4.86603 7.78965 5.69876C6.54338 6.53149 5.57203 7.71508 4.99843 9.09987C4.42484 10.4846 4.27476 12.0084 4.56718 13.4785C4.85959 14.9486 5.58137 16.2989 6.64124 17.3588C7.7011 18.4187 9.05146 19.1404 10.5215 19.4329C11.9916 19.7253 13.5154 19.5752 14.9002 19.0016C16.285 18.428 17.4685 17.4567 18.3013 16.2104C19.134 14.9641 19.5785 13.4989 19.5785 12C19.5724 9.99196 18.772 8.06788 17.3521 6.64796C15.9322 5.22804 14.0081 4.42764 12 4.42156ZM15.5169 8.64463L16.26 9.34617C16.336 9.44645 16.3771 9.56882 16.3771 9.69463C16.3771 9.82045 16.336 9.94282 16.26 10.0431L11.5754 15.2631C11.4828 15.3681 11.3682 15.4515 11.2398 15.5073C11.1114 15.5631 10.9723 15.5901 10.8323 15.5862C10.6931 15.5854 10.5554 15.5564 10.4277 15.5008C10.2999 15.4453 10.1848 15.3644 10.0892 15.2631L7.5554 12.7385C7.50899 12.6987 7.47094 12.6501 7.44346 12.5955C7.41598 12.5409 7.39962 12.4814 7.39532 12.4204C7.39103 12.3595 7.39889 12.2982 7.41845 12.2403C7.438 12.1824 7.46887 12.129 7.50925 12.0831L7.5554 12.0323L8.30771 11.3354C8.39831 11.2379 8.52356 11.18 8.65649 11.1739C8.78942 11.1679 8.91941 11.2143 9.01848 11.3031L9.05079 11.3354L10.8462 13.1816L14.8108 8.65848C14.9037 8.56496 15.0293 8.51122 15.1611 8.50864C15.2928 8.50606 15.4205 8.55482 15.5169 8.64463Z" fill="#A0A0A0"/>
</g>
<defs>
<clipPath id="clip0_0_207">
<rect width="24" height="24" fill="white"/>
</clipPath>
</defs>
</svg>
